<?xml version="1.0" encoding="UTF-8"?> <svg xmlns="http://www.w3.org/2000/svg" width="260" height="260" viewBox="0 0 260 260"><style>.a{fill:#F99C1F;}.b{fill:#FFF;}.c{fill:none;stroke-width:3;stroke:#F99C1F;}.d{fill:none;stroke-width:2;stroke:#FFF;}</style><path d="M130 0c71.8 0 130 58.2 130 130 0 71.8-58.2 130-130 130C58.2 260 0 201.8 0 130 0 58.2 58.2 0 130 0z" fill="#FCB342"></path><path d="M253 172l-47.4-84.4C182.2 45.8 129.3 30.9 87.5 54.4c-41.8 23.5-56.6 76.3-33.2 118.1l47.4 84.4c9.1 2 18.5 3.1 28.2 3.1C187.1 260 235.6 223.2 253 172z" class="a"></path><path d="M130 43.3c47.9 0 86.7 38.8 86.7 86.7s-38.8 86.7-86.7 86.7c-47.9 0-86.7-38.8-86.7-86.7S82.1 43.3 130 43.3z" class="b"></path><circle cx="130" cy="130" r="25.1" class="a"></circle><line x1="76.1" y1="130" x2="183.8" y2="130" class="c"></line><circle cx="73.4" cy="130" r="12.1" class="a"></circle><circle cx="186.6" cy="130" r="12.1" class="a"></circle><line x1="103" y1="176.6" x2="156.9" y2="83.3" class="c"></line><circle cx="101.7" cy="179" r="12.1" class="a"></circle><circle cx="158.3" cy="80.9" r="12.1" class="a"></circle><line x1="156.9" y1="176.6" x2="103.1" y2="83.3" class="c"></line><circle cx="158.3" cy="179" r="12.1" class="a"></circle><circle cx="101.7" cy="80.9" r="12.1" class="a"></circle><path d="M130 110.1c11 0 19.9 8.9 19.9 19.9 0 11-8.9 19.9-19.9 19.9s-19.9-8.9-19.9-19.9C110.1 119 119 110.1 130 110.1M130 107.8c-12.2 0-22.2 9.9-22.2 22.2 0 12.2 9.9 22.2 22.2 22.2s22.2-9.9 22.2-22.2C152.1 117.7 142.2 107.8 130 107.8L130 107.8z" class="b"></path><line x1="130" y1="108.6" x2="130" y2="151" class="d"></line><line x1="109.3" y1="130" x2="150.8" y2="130" class="d"></line><line x1="112" y1="119.6" x2="148.2" y2="119.6" class="d"></line><line x1="112" y1="140.1" x2="148.2" y2="140.1" class="d"></line><path d="M130.1 110.1c0 0-11.5 5.7-11.5 19.9" class="d"></path><path d="M130.1 110.1c0 0 11.5 5.7 11.5 19.9" class="d"></path><path d="M130.1 150c0 0-11.5-5.7-11.5-19.9" class="d"></path><path d="M130.1 150c0 0 11.5-5.7 11.5-19.9" class="d"></path></svg> 